<?xml version="1.0" standalone="no"?>
<!DOCTYPE svg PUBLIC "-//W3C//DTD SVG 20010904//EN"
 "http://www.w3.org/TR/2001/REC-SVG-20010904/DTD/svg10.dtd">
<svg version="1.0" xmlns="http://www.w3.org/2000/svg"
 width="800.000000pt" height="600.000000pt" viewBox="0 0 800.000000 600.000000"
 preserveAspectRatio="xMidYMid meet">

<g transform="translate(0.000000,600.000000) scale(0.100000,-0.100000)"
fill="#000000" stroke="none">
<path d="M945 5390 c-15 -17 -16 -24 -7 -45 7 -14 22 -30 34 -35 13 -5 237
-39 498 -75 261 -36 664 -92 895 -125 620 -87 1815 -254 2185 -305 434 -59
485 -68 509 -85 15 -10 71 -25 131 -34 58 -9 110 -22 115 -30 21 -27 60 -38
131 -38 41 0 76 -3 78 -7 3 -4 -11 -15 -30 -24 -133 -64 -318 -229 -408 -365
-84 -127 -142 -276 -166 -430 -12 -71 -14 -242 -5 -328 l7 -59 -94 -28 c-108
-33 -266 -83 -538 -172 -107 -35 -330 -107 -495 -160 -274 -88 -580 -187
-1075 -347 -102 -33 -255 -82 -340 -110 -85 -27 -236 -76 -335 -108 -240 -78
-738 -238 -904 -291 -73 -24 -140 -50 -148 -58 -20 -19 -11 -78 16 -104 19
-19 21 -19 157 26 77 25 252 82 389 127 138 45 365 119 505 165 140 46 410
133 600 195 190 61 356 115 370 120 14 5 207 68 430 140 559 181 1310 427
1397 456 39 13 79 24 87 24 16 0 33 -32 42 -80 6 -28 13 -23 -141 -92 -49 -22
-112 -50 -140 -63 -57 -26 -100 -46 -235 -105 -52 -23 -117 -52 -145 -65 -27
-13 -153 -69 -280 -125 -388 -173 -1800 -804 -2045 -914 -69 -31 -174 -78
-233 -104 -60 -26 -113 -55 -118 -64 -6 -12 -5 -29 4 -50 29 -68 22 -69 294
52 445 200 627 282 678 305 198 89 1204 542 1440 647 160 71 313 140 340 153
28 13 75 34 105 48 97 43 142 63 300 135 182 82 229 102 240 102 5 0 28 -28
53 -62 149 -208 370 -358 622 -423 140 -36 312 -41 453 -14 30 6 56 8 60 5 3
-4 -9 -21 -26 -39 -20 -20 -32 -43 -32 -59 0 -19 -19 -47 -67 -98 -38 -40 -75
-85 -83 -100 -8 -16 -58 -73 -110 -127 -52 -54 -146 -152 -210 -218 -63 -66
-165 -172 -226 -235 -140 -146 -830 -865 -909 -949 -79 -82 -81 -88 -58 -120
42 -55 29 -66 398 319 66 69 176 184 245 256 69 71 172 179 229 239 110 115
486 508 629 657 46 47 94 89 107 92 12 3 50 35 84 72 43 46 73 69 99 76 40 11
92 53 92 76 0 19 137 158 170 172 24 10 257 263 270 293 3 7 13 24 23 38 10
15 17 40 15 56 -1 19 9 47 30 79 87 136 141 304 162 503 13 124 9 179 -22 316
-50 223 -164 415 -339 572 -107 96 -212 158 -349 207 -41 15 -84 36 -96 47
-46 43 -100 61 -279 90 -99 16 -209 29 -245 29 -65 1 -202 18 -313 41 -48 9
-61 9 -80 -4 -18 -11 -36 -12 -97 -5 -41 5 -106 7 -144 4 -53 -4 -150 7 -410
45 -954 140 -1347 196 -1656 239 -124 17 -351 49 -505 70 -1068 151 -1496 210
-1531 210 -18 0 -38 -8 -49 -20z m955 -140 c890 -128 2639 -377 2880 -411 194
-26 262 -37 268 -44 19 -19 -39 -15 -276 19 -259 36 -545 77 -1732 245 -311
44 -729 103 -930 131 -751 104 -1075 150 -1088 155 -20 7 -4 25 22 25 12 0
397 -54 856 -120z m3531 -460 c-1 -14 -4 -50 -6 -80 -3 -53 -4 -55 -30 -53
-15 1 -33 7 -41 14 -19 15 -18 83 2 120 13 25 20 30 47 27 28 -3 32 -6 28 -28z
m-158 1 c12 -11 -4 -71 -19 -71 -7 0 -47 5 -89 11 -72 11 -75 12 -75 39 0 14
3 30 7 34 9 9 165 -3 176 -13z m47 -35 c0 -19 -4 -37 -9 -41 -13 -7 -24 30
-16 55 10 32 25 23 25 -14z m165 -28 c-4 -69 -20 -83 -43 -36 -11 23 -10 33 2
63 8 19 22 35 30 35 12 0 14 -12 11 -62z m182 38 c2 -1 0 -27 -4 -57 l-8 -54
-57 -3 c-75 -4 -98 9 -98 54 0 19 5 45 11 56 10 19 17 20 82 14 39 -4 72 -8
74 -10z m348 -29 c95 -16 131 -26 133 -37 2 -13 -21 -15 -160 -15 -90 0 -182
-4 -205 -8 l-43 -9 0 32 c0 17 5 40 11 52 13 23 39 22 264 -15z m-290 -2 c-3
-14 -7 -36 -10 -50 -5 -25 -34 -35 -36 -12 -5 47 10 87 31 87 16 0 19 -5 15
-25z m400 -85 c144 -21 343 -105 465 -196 290 -219 452 -583 411 -929 -41
-358 -237 -646 -551 -814 -87 -46 -117 -50 -192 -21 -162 62 -365 277 -510
540 -43 77 -118 251 -118 272 0 10 21 21 63 33 34 9 122 35 195 57 74 22 140
37 148 34 8 -3 14 -14 14 -25 0 -10 6 -21 13 -24 7 -2 100 25 207 61 l195 65
2 51 c3 79 -6 114 -37 150 -16 18 -34 45 -39 59 l-10 26 -158 -54 c-87 -29
-180 -61 -206 -71 l-48 -16 6 -39 c4 -22 5 -39 3 -39 -1 0 -90 -32 -197 -70
-140 -50 -197 -67 -202 -58 -14 22 -50 180 -64 282 -19 132 -19 361 0 450 21
100 66 191 107 216 95 58 323 85 503 60z m-590 -143 c-39 -84 -55 -177 -55
-320 0 -188 30 -418 69 -521 9 -23 8 -26 -10 -26 -11 0 -41 -14 -65 -32 -27
-19 -48 -28 -53 -22 -15 14 -48 158 -67 284 -12 86 -15 152 -11 265 6 157 20
230 62 323 22 47 30 55 86 82 35 16 64 28 66 26 2 -2 -8 -28 -22 -59z m-150
-54 c-52 -130 -70 -255 -61 -434 6 -137 26 -265 56 -374 15 -53 17 -71 7 -77
-6 -4 -75 -28 -152 -54 -77 -25 -153 -55 -168 -65 -16 -11 -43 -23 -61 -26
-33 -5 -33 -5 -39 43 -18 145 -18 195 -3 302 38 256 135 444 325 625 79 76
110 95 96 60z m990 -514 c4 -11 5 -22 3 -24 -1 -1 -77 -28 -167 -59 -127 -44
-166 -54 -173 -44 -5 9 -8 7 -8 -7 0 -18 -1 -18 -16 -3 -9 9 -14 23 -11 31 5
13 312 125 349 126 9 1 20 -8 23 -20z m64 -80 c17 -50 14 -79 -11 -88 -18 -6
-19 -9 -5 -14 10 -4 17 -15 17 -25 0 -16 -30 -29 -167 -76 -152 -51 -203 -64
-203 -52 0 2 -3 11 -6 20 -3 9 -1 16 5 16 6 0 11 -7 11 -15 0 -8 8 -15 18 -15
14 0 15 2 2 10 -11 7 -11 10 -2 10 7 0 11 4 7 9 -6 10 39 28 198 81 54 17 96
34 94 36 -2 2 -72 -19 -156 -47 -84 -27 -157 -49 -162 -47 -14 5 -50 111 -41
119 4 3 43 18 87 34 44 15 122 43 174 61 105 36 122 34 140 -17z m-404 -129
c8 -16 15 -36 15 -45 0 -27 -16 -16 -30 23 -8 20 -16 40 -18 45 -2 4 1 7 7 7
6 0 17 -13 26 -30z m-31 -22 c10 -25 11 -36 2 -45 -12 -13 -361 -123 -390
-123 -17 0 -23 9 -28 45 -3 16 22 28 177 86 99 37 190 67 202 68 17 1 27 -8
37 -31z m-474 -117 c0 -10 7 -35 15 -54 21 -51 19 -59 -12 -55 -39 4 -71 68
-53 104 16 29 50 32 50 5z m46 -26 c6 -24 0 -44 -10 -34 -11 11 -17 59 -7 59
6 0 13 -11 17 -25z m-102 -47 c8 -36 -11 -37 -24 -2 -10 27 -4 52 10 37 4 -4
10 -20 14 -35z m-37 -3 c6 -19 8 -37 5 -39 -10 -6 -273 -84 -296 -88 -24 -4
-51 41 -35 57 12 12 266 102 295 104 15 1 23 -8 31 -34z m207 -110 c123 -316
378 -632 579 -720 37 -16 67 -32 67 -36 0 -3 -27 -14 -61 -23 -57 -17 -64 -17
-113 -1 -196 64 -408 300 -571 637 -36 73 -68 148 -71 166 l-6 32 43 0 c24 0
55 6 69 14 14 7 28 10 31 7 3 -3 18 -37 33 -76z m-150 -80 c142 -328 328 -566
541 -691 l50 -29 -80 -3 c-407 -17 -800 232 -960 607 -47 110 -49 118 -27 123
11 3 26 2 34 -3 10 -6 20 -4 28 6 7 8 20 15 29 15 9 0 74 18 144 41 102 32
131 38 143 28 8 -6 15 -9 15 -5 1 3 3 11 4 16 1 6 3 13 4 16 5 23 31 -19 75
-121z m-399 75 c0 -9 -127 -55 -380 -138 -209 -68 -580 -189 -825 -269 -436
-142 -740 -242 -1230 -401 -364 -119 -1176 -384 -1410 -461 -113 -37 -211 -66
-218 -63 -28 10 -5 36 48 53 101 33 1434 465 1680 544 307 100 643 209 940
305 517 167 1014 328 1200 390 96 32 180 57 185 56 6 -2 10 -9 10 -16z m-67
-276 c-2 -11 -112 -66 -323 -160 -176 -79 -333 -150 -350 -158 -16 -9 -167
-77 -335 -152 -168 -75 -393 -176 -500 -224 -107 -49 -442 -199 -745 -335
-302 -136 -669 -301 -814 -366 -144 -66 -267 -116 -273 -113 -5 3 -8 12 -6 20
3 14 104 61 893 414 171 76 447 200 615 275 168 75 429 192 580 260 151 67
305 137 343 154 37 17 69 31 71 31 2 0 42 18 88 39 45 22 146 67 223 101 208
91 226 100 374 167 147 67 164 72 159 47z m1802 -179 c0 -16 -27 -32 -37 -21
-7 7 16 36 28 36 5 0 9 -7 9 -15z m-50 -68 c0 -16 -219 -257 -234 -257 -10 0
-66 46 -66 55 0 2 26 19 58 39 31 19 88 62 127 94 38 33 73 58 78 55 4 -2 7
-1 6 4 -3 17 1 23 16 23 8 0 15 -6 15 -13z m-290 -242 c30 -31 32 -35 13 -35
-11 0 -32 9 -47 21 -21 17 -24 24 -15 35 6 8 12 14 13 14 1 0 17 -16 36 -35z
m-42 -25 c17 -16 32 -32 32 -34 0 -8 -90 -96 -97 -96 -13 1 -39 24 -57 52
l-17 27 43 40 c23 23 47 41 53 41 5 0 25 -14 43 -30z m-117 -109 c45 -45 47
-51 17 -51 -29 0 -68 38 -68 67 0 31 6 29 51 -16z m-57 -19 c8 -15 26 -34 40
-42 28 -15 33 -29 14 -48 -20 -20 -45 -14 -83 19 -38 33 -42 48 -23 79 18 28
35 25 52 -8z m-39 -92 c10 -11 15 -23 12 -27 -8 -7 -47 25 -47 39 0 14 16 9
35 -12z m-35 -25 l24 -26 -57 -57 c-48 -48 -60 -55 -75 -46 -33 21 -26 51 24
104 26 27 50 50 54 50 3 0 17 -11 30 -25z m-127 -131 c8 -9 -26 -48 -171 -199
-229 -238 -427 -444 -697 -725 -247 -258 -591 -616 -623 -649 -25 -26 -36 -31
-45 -22 -8 8 -1 21 28 53 44 47 217 227 430 448 77 80 244 253 370 385 541
564 688 715 695 715 4 0 10 -3 13 -6z"/>
<path d="M5368 4713 c7 -3 16 -2 19 1 4 3 -2 6 -13 5 -11 0 -14 -3 -6 -6z"/>
<path d="M5378 4683 c7 -3 16 -2 19 1 4 3 -2 6 -13 5 -11 0 -14 -3 -6 -6z"/>
<path d="M5116 4775 c-6 -17 0 -20 57 -30 27 -4 37 -3 32 4 -3 6 -21 11 -38
12 -27 0 -29 2 -12 9 11 5 15 9 8 9 -6 1 -18 4 -26 7 -8 3 -17 -2 -21 -11z"/>
<path d="M5528 4733 c6 -2 18 -2 25 0 6 3 1 5 -13 5 -14 0 -19 -2 -12 -5z"/>
<path d="M5573 4703 c9 -2 23 -2 30 0 6 3 -1 5 -18 5 -16 0 -22 -2 -12 -5z"/>
<path d="M5540 4680 c14 -4 36 -8 50 -8 l25 0 -25 8 c-14 4 -36 8 -50 8 l-25
0 25 -8z"/>
<path d="M5780 4753 c0 -11 250 -48 271 -41 7 2 -45 13 -116 22 -72 10 -136
21 -142 23 -7 3 -13 1 -13 -4z"/>
<path d="M5955 4530 c-3 -5 -1 -10 4 -10 6 0 11 5 11 10 0 6 -2 10 -4 10 -3 0
-8 -4 -11 -10z"/>
<path d="M5600 4516 c-18 -22 -5 -48 22 -44 17 2 23 10 23 28 0 29 -26 38 -45
16z m32 -28 c-15 -15 -26 -4 -18 18 5 13 9 15 18 6 9 -9 9 -15 0 -24z"/>
<path d="M5600 4410 c0 -5 5 -10 10 -10 6 0 10 5 10 10 0 6 -4 10 -10 10 -5 0
-10 -4 -10 -10z"/>
<path d="M5910 4409 c0 -5 5 -7 10 -4 6 3 10 8 10 11 0 2 -4 4 -10 4 -5 0 -10
-5 -10 -11z"/>
<path d="M5554 4344 c-18 -14 -18 -15 6 -8 14 3 32 10 40 15 12 7 11 8 -6 9
-11 0 -29 -7 -40 -16z"/>
<path d="M5605 4320 c-3 -5 -1 -10 4 -10 6 0 11 5 11 10 0 6 -2 10 -4 10 -3 0
-8 -4 -11 -10z"/>
<path d="M6040 4260 c0 -5 5 -10 10 -10 6 0 10 5 10 10 0 6 -4 10 -10 10 -5 0
-10 -4 -10 -10z"/>
<path d="M6125 4210 c-3 -5 -1 -10 4 -10 6 0 11 5 11 10 0 6 -2 10 -4 10 -3 0
-8 -4 -11 -10z"/>
<path d="M5530 4175 c0 -22 4 -26 23 -23 14 2 22 10 22 23 0 13 -8 21 -22 23
-19 3 -23 -1 -23 -23z m34 -6 c-3 -5 -10 -7 -15 -3 -5 3 -7 10 -3 15 3 5 10 7
15 3 5 -3 7 -10 3 -15z"/>
<path d="M5625 4190 c-3 -5 1 -10 10 -10 9 0 13 5 10 10 -3 6 -8 10 -10 10 -2
0 -7 -4 -10 -10z"/>
<path d="M5935 4150 c-3 -5 -2 -10 4 -10 5 0 13 5 16 10 3 6 2 10 -4 10 -5 0
-13 -4 -16 -10z"/>
<path d="M6195 4110 c-3 -5 1 -10 10 -10 9 0 13 5 10 10 -3 6 -8 10 -10 10 -2
0 -7 -4 -10 -10z"/>
<path d="M5545 4090 c-3 -5 -1 -10 4 -10 6 0 11 5 11 10 0 6 -2 10 -4 10 -3 0
-8 -4 -11 -10z"/>
<path d="M6350 4080 c0 -5 4 -10 9 -10 6 0 13 5 16 10 3 6 -1 10 -9 10 -9 0
-16 -4 -16 -10z"/>
<path d="M5865 4050 c-3 -5 -1 -10 4 -10 6 0 11 5 11 10 0 6 -2 10 -4 10 -3 0
-8 -4 -11 -10z"/>
<path d="M5555 4040 c-3 -5 -2 -10 4 -10 5 0 13 5 16 10 3 6 2 10 -4 10 -5 0
-13 -4 -16 -10z"/>
<path d="M6048 4043 c7 -3 16 -2 19 1 4 3 -2 6 -13 5 -11 0 -14 -3 -6 -6z"/>
<path d="M5620 4019 c0 -5 5 -7 10 -4 6 3 10 8 10 11 0 2 -4 4 -10 4 -5 0 -10
-5 -10 -11z"/>
<path d="M5550 3990 c0 -5 7 -7 15 -4 8 4 15 8 15 10 0 2 -7 4 -15 4 -8 0 -15
-4 -15 -10z"/>
<path d="M5580 3963 c-19 -9 -30 -18 -24 -20 16 -5 64 15 64 27 0 5 -1 10 -2
9 -2 0 -19 -8 -38 -16z"/>
<path d="M6150 3969 c0 -5 5 -7 10 -4 6 3 10 8 10 11 0 2 -4 4 -10 4 -5 0 -10
-5 -10 -11z"/>
<path d="M5645 3930 c-3 -5 1 -10 9 -10 9 0 16 5 16 10 0 6 -4 10 -9 10 -6 0
-13 -4 -16 -10z"/>
<path d="M5700 3910 c-13 -8 -12 -10 3 -10 9 0 17 5 17 10 0 12 -1 12 -20 0z"/>
<path d="M5637 3883 c-12 -12 -7 -22 8 -17 8 4 15 10 15 15 0 11 -14 12 -23 2z"/>
<path d="M5560 3844 c-11 -12 -10 -18 3 -32 16 -15 18 -15 34 0 13 14 14 20 3
32 -7 9 -16 16 -20 16 -4 0 -13 -7 -20 -16z m30 -14 c0 -5 -4 -10 -10 -10 -5
0 -10 5 -10 10 0 6 5 10 10 10 6 0 10 -4 10 -10z"/>
<path d="M5634 3745 c-10 -8 -14 -15 -8 -15 5 0 19 7 30 15 10 8 14 15 8 15
-5 0 -19 -7 -30 -15z"/>
<path d="M5614 3695 c-16 -12 -16 -14 -3 -15 9 0 22 7 29 15 16 19 0 19 -26 0z"/>
<path d="M5865 3530 c-3 -5 -1 -10 4 -10 6 0 11 5 11 10 0 6 -2 10 -4 10 -3 0
-8 -4 -11 -10z"/>
<path d="M5680 3465 c-17 -20 -5 -45 20 -45 11 0 23 7 26 15 6 15 -11 45 -26
45 -4 0 -13 -7 -20 -15z m35 -14 c7 -12 -12 -24 -25 -16 -11 7 -4 25 10 25 5
0 11 -4 15 -9z"/>
<path d="M5910 3459 c0 -5 5 -7 10 -4 6 3 10 8 10 11 0 2 -4 4 -10 4 -5 0 -10
-5 -10 -11z"/>
<path d="M5865 3420 c-3 -5 -1 -10 4 -10 6 0 11 5 11 10 0 6 -2 10 -4 10 -3 0
-8 -4 -11 -10z"/>
<path d="M6260 3410 c0 -5 5 -10 10 -10 6 0 10 5 10 10 0 6 -4 10 -10 10 -5 0
-10 -4 -10 -10z"/>
<path d="M5770 3379 c0 -5 5 -7 10 -4 6 3 10 8 10 11 0 2 -4 4 -10 4 -5 0 -10
-5 -10 -11z"/>
<path d="M5920 3379 c0 -5 5 -7 10 -4 6 3 10 8 10 11 0 2 -4 4 -10 4 -5 0 -10
-5 -10 -11z"/>
<path d="M6665 3370 c-3 -5 -1 -10 4 -10 6 0 11 5 11 10 0 6 -2 10 -4 10 -3 0
-8 -4 -11 -10z"/>
<path d="M5825 3360 c-3 -5 -1 -10 4 -10 6 0 11 5 11 10 0 6 -2 10 -4 10 -3 0
-8 -4 -11 -10z"/>
<path d="M6125 3350 c-3 -5 -1 -10 4 -10 6 0 11 5 11 10 0 6 -2 10 -4 10 -3 0
-8 -4 -11 -10z"/>
<path d="M5740 3320 c-13 -9 -13 -10 0 -10 8 0 22 5 30 10 13 9 13 10 0 10 -8
0 -22 -5 -30 -10z"/>
<path d="M5965 3300 c-3 -5 1 -10 9 -10 9 0 16 5 16 10 0 6 -4 10 -9 10 -6 0
-13 -4 -16 -10z"/>
<path d="M5840 3290 c0 -5 7 -10 15 -10 8 0 15 5 15 10 0 6 -7 10 -15 10 -8 0
-15 -4 -15 -10z"/>
<path d="M6755 3280 c-3 -5 -1 -10 4 -10 6 0 11 5 11 10 0 6 -2 10 -4 10 -3 0
-8 -4 -11 -10z"/>
<path d="M5778 3253 c7 -3 16 -2 19 1 4 3 -2 6 -13 5 -11 0 -14 -3 -6 -6z"/>
<path d="M5900 3220 c0 -5 5 -10 10 -10 6 0 10 5 10 10 0 6 -4 10 -10 10 -5 0
-10 -4 -10 -10z"/>
<path d="M6195 3220 c-3 -5 1 -10 10 -10 9 0 13 5 10 10 -3 6 -8 10 -10 10 -2
0 -7 -4 -10 -10z"/>
<path d="M5965 3200 c-3 -5 -1 -10 4 -10 6 0 11 5 11 10 0 6 -2 10 -4 10 -3 0
-8 -4 -11 -10z"/>
<path d="M5840 3165 c-25 -30 10 -61 38 -33 17 17 15 26 -7 37 -14 8 -22 7
-31 -4z m30 -13 c0 -13 -12 -22 -22 -16 -10 6 -1 24 13 24 5 0 9 -4 9 -8z"/>
<path d="M6085 3170 c-3 -5 -1 -10 4 -10 6 0 11 5 11 10 0 6 -2 10 -4 10 -3 0
-8 -4 -11 -10z"/>
<path d="M6185 3140 c-3 -5 -1 -10 4 -10 6 0 11 5 11 10 0 6 -2 10 -4 10 -3 0
-8 -4 -11 -10z"/>
<path d="M6298 3113 c7 -3 16 -2 19 1 4 3 -2 6 -13 5 -11 0 -14 -3 -6 -6z"/>
<path d="M5877 3093 c-12 -12 -7 -22 8 -17 8 4 15 10 15 15 0 11 -14 12 -23 2z"/>
<path d="M6065 3090 c-3 -5 -2 -10 4 -10 5 0 13 5 16 10 3 6 2 10 -4 10 -5 0
-13 -4 -16 -10z"/>
<path d="M6760 3075 c-7 -9 -11 -18 -8 -20 3 -3 11 1 18 10 7 9 11 18 8 20 -3
3 -11 -1 -18 -10z"/>
<path d="M5914 3055 c-15 -11 -16 -14 -3 -15 8 0 24 7 35 15 15 11 16 14 3 15
-8 0 -24 -7 -35 -15z"/>
<path d="M6665 3040 c-3 -5 -2 -10 4 -10 5 0 13 5 16 10 3 6 2 10 -4 10 -5 0
-13 -4 -16 -10z"/>
<path d="M6160 3019 c0 -5 5 -7 10 -4 6 3 10 8 10 11 0 2 -4 4 -10 4 -5 0 -10
-5 -10 -11z"/>
<path d="M6715 3020 c-3 -5 -1 -10 4 -10 6 0 11 5 11 10 0 6 -2 10 -4 10 -3 0
-8 -4 -11 -10z"/>
<path d="M5930 3010 c0 -5 7 -7 15 -4 8 4 15 8 15 10 0 2 -7 4 -15 4 -8 0 -15
-4 -15 -10z"/>
<path d="M6020 3010 c0 -5 4 -10 9 -10 6 0 13 5 16 10 3 6 -1 10 -9 10 -9 0
-16 -4 -16 -10z"/>
<path d="M6270 3000 c0 -5 4 -10 9 -10 6 0 13 5 16 10 3 6 -1 10 -9 10 -9 0
-16 -4 -16 -10z"/>
<path d="M6605 2970 c-16 -17 -24 -30 -19 -30 13 0 59 48 52 55 -2 3 -17 -9
-33 -25z"/>
<path d="M6195 2970 c-3 -5 -2 -10 4 -10 5 0 13 5 16 10 3 6 2 10 -4 10 -5 0
-13 -4 -16 -10z"/>
<path d="M6003 2953 c-14 -5 -18 -23 -5 -23 5 0 17 7 28 15 14 11 15 14 4 14
-8 0 -21 -3 -27 -6z"/>
<path d="M6445 2940 c-3 -5 -2 -10 4 -10 5 0 13 5 16 10 3 6 2 10 -4 10 -5 0
-13 -4 -16 -10z"/>
<path d="M6500 2930 c-14 -10 -22 -21 -19 -24 2 -3 18 6 34 19 35 29 22 33
-15 5z"/>
<path d="M6280 2930 c0 -5 5 -10 10 -10 6 0 10 5 10 10 0 6 -4 10 -10 10 -5 0
-10 -4 -10 -10z"/>
<path d="M6045 2914 c-12 -13 -13 -19 -4 -30 19 -23 49 -17 49 10 0 30 -24 40
-45 20z m35 -14 c0 -5 -7 -10 -15 -10 -8 0 -15 5 -15 10 0 6 7 10 15 10 8 0
15 -4 15 -10z"/>
<path d="M6150 2909 c0 -5 5 -7 10 -4 6 3 10 8 10 11 0 2 -4 4 -10 4 -5 0 -10
-5 -10 -11z"/>
<path d="M6330 2900 c0 -5 4 -10 9 -10 6 0 13 5 16 10 3 6 -1 10 -9 10 -9 0
-16 -4 -16 -10z"/>
<path d="M6495 2879 c-22 -17 -66 -44 -98 -60 -32 -16 -55 -34 -52 -40 10 -16
203 101 205 124 0 13 -15 7 -55 -24z"/>
<path d="M6560 2881 c-19 -16 -32 -32 -28 -36 3 -4 24 9 45 29 46 42 33 48
-17 7z"/>
<path d="M6250 2860 c-13 -8 -13 -10 2 -10 9 0 20 5 23 10 8 13 -5 13 -25 0z"/>
<path d="M6108 2852 c-10 -2 -18 -8 -18 -13 0 -11 11 -11 30 1 18 11 11 18
-12 12z"/>
<path d="M6175 2829 c-11 -17 0 -20 21 -4 17 13 17 14 2 15 -9 0 -20 -5 -23
-11z"/>
<path d="M6315 2820 c-8 -13 5 -13 25 0 13 8 13 10 -2 10 -9 0 -20 -4 -23 -10z"/>
<path d="M6459 2800 c-13 -10 -19 -19 -13 -20 7 0 22 9 35 20 13 10 19 19 13
20 -7 0 -22 -9 -35 -20z"/>
<path d="M6535 2810 c-3 -5 -1 -10 4 -10 6 0 11 5 11 10 0 6 -2 10 -4 10 -3 0
-8 -4 -11 -10z"/>
<path d="M6215 2800 c-3 -5 1 -10 9 -10 9 0 16 5 16 10 0 6 -4 10 -9 10 -6 0
-13 -4 -16 -10z"/>
<path d="M6272 2748 c2 -15 10 -23 23 -23 13 0 21 8 23 23 3 18 -1 22 -23 22
-22 0 -26 -4 -23 -22z m33 2 c3 -5 -1 -10 -9 -10 -9 0 -16 5 -16 10 0 6 4 10
9 10 6 0 13 -4 16 -10z"/>
<path d="M6375 2760 c-3 -5 1 -10 9 -10 9 0 16 5 16 10 0 6 -4 10 -9 10 -6 0
-13 -4 -16 -10z"/>
<path d="M5490 4509 c0 -5 5 -7 10 -4 6 3 10 8 10 11 0 2 -4 4 -10 4 -5 0 -10
-5 -10 -11z"/>
<path d="M5401 4083 c-1 -18 4 -33 9 -33 12 0 12 17 0 45 -7 17 -9 15 -9 -12z"/>
<path d="M5371 4040 c0 -35 3 -50 8 -40 5 8 5 33 1 55 -8 40 -8 40 -9 -15z"/>
<path d="M5380 3878 c0 -43 33 -188 42 -188 6 0 8 10 5 23 -3 12 -12 59 -19
105 -12 76 -28 111 -28 60z"/>
<path d="M5450 3682 c0 -5 7 -17 16 -28 14 -17 15 -17 10 -1 -3 10 -6 23 -6
28 0 5 -4 9 -10 9 -5 0 -10 -4 -10 -8z"/>
<path d="M5430 3645 c0 -8 4 -15 10 -15 5 0 7 7 4 15 -4 8 -8 15 -10 15 -2 0
-4 -7 -4 -15z"/>
<path d="M5253 4268 c-13 -6 -23 -15 -23 -20 0 -12 41 0 60 18 13 12 13 14 0
13 -8 0 -25 -5 -37 -11z"/>
<path d="M5235 4204 c-57 -28 -83 -50 -47 -39 48 14 112 46 112 55 0 14 -9 12
-65 -16z"/>
<path d="M5235 4153 c-39 -21 -16 -29 24 -8 17 8 31 18 31 20 0 10 -26 4 -55
-12z"/>
<path d="M5175 4069 c-95 -42 -121 -59 -91 -59 23 0 176 67 196 86 25 25 -8
16 -105 -27z"/>
<path d="M5110 4090 c0 -5 7 -7 15 -4 8 4 15 8 15 10 0 2 -7 4 -15 4 -8 0 -15
-4 -15 -10z"/>
<path d="M5256 4034 c-5 -12 -2 -15 10 -10 8 3 18 6 20 6 2 0 4 5 4 10 0 16
-27 11 -34 -6z"/>
<path d="M5175 4008 c-38 -13 -56 -28 -49 -39 5 -9 94 31 94 43 0 10 -7 9 -45
-4z"/>
<path d="M5213 3954 c-52 -25 -74 -52 -32 -39 41 13 108 46 114 55 11 17 -28
9 -82 -16z"/>
<path d="M5211 3885 c-92 -38 -95 -39 -90 -54 2 -5 42 6 89 26 96 39 93 38 89
52 -3 6 -39 -4 -88 -24z"/>
<path d="M5100 3900 c-8 -5 -11 -12 -8 -16 10 -9 38 3 38 16 0 12 -10 13 -30
0z"/>
<path d="M5046 3871 c-4 -7 -5 -15 -2 -18 9 -9 19 4 14 18 -4 11 -6 11 -12 0z"/>
<path d="M5201 3807 c-40 -18 -72 -36 -71 -42 1 -5 9 -9 18 -7 30 6 152 65
152 73 0 15 -21 9 -99 -24z"/>
<path d="M5044 3806 c-10 -8 -17 -16 -14 -19 8 -8 50 11 50 23 0 14 -13 13
-36 -4z"/>
<path d="M5275 3759 c-12 -19 5 -23 22 -6 16 16 16 17 1 17 -9 0 -20 -5 -23
-11z"/>
<path d="M5060 3740 c0 -5 7 -10 15 -10 8 0 15 5 15 10 0 6 -7 10 -15 10 -8 0
-15 -4 -15 -10z"/>
<path d="M5189 3724 c-11 -14 -10 -15 11 -12 13 1 25 9 28 16 5 17 -23 15 -39
-4z"/>
<path d="M5005 3720 c-3 -5 1 -10 10 -10 9 0 13 5 10 10 -3 6 -8 10 -10 10 -2
0 -7 -4 -10 -10z"/>
<path d="M5300 3710 c0 -5 5 -10 10 -10 6 0 10 5 10 10 0 6 -4 10 -10 10 -5 0
-10 -4 -10 -10z"/>
<path d="M5075 3683 c-62 -25 -83 -39 -74 -48 6 -5 129 42 142 55 20 19 -12
15 -68 -7z"/>
<path d="M5142 3650 c-112 -47 -141 -64 -130 -75 8 -8 228 82 246 99 30 30 -9
22 -116 -24z"/>
<path d="M5303 3654 c-31 -13 -45 -34 -23 -34 21 0 71 31 65 40 -4 6 -7 10 -8
9 -1 0 -17 -7 -34 -15z"/>
<path d="M5335 3610 c-3 -5 1 -10 9 -10 9 0 16 5 16 10 0 6 -4 10 -9 10 -6 0
-13 -4 -16 -10z"/>
<path d="M5200 3600 c0 -13 11 -13 30 0 12 8 11 10 -7 10 -13 0 -23 -4 -23
-10z"/>
<path d="M5285 3589 c-4 -6 -5 -13 -2 -16 7 -7 27 6 27 18 0 12 -17 12 -25 -2z"/>
<path d="M5095 3565 c-61 -25 -103 -55 -75 -55 26 1 155 66 144 72 -5 4 -36
-4 -69 -17z"/>
<path d="M5155 3539 c-73 -31 -100 -49 -74 -49 21 0 169 62 169 72 0 13 -21 8
-95 -23z"/>
<path d="M5015 3481 c-3 -5 -1 -12 5 -16 5 -3 10 1 10 9 0 18 -6 21 -15 7z"/>
<path d="M6410 3835 c0 -5 5 -17 10 -25 5 -8 10 -10 10 -5 0 6 -5 17 -10 25
-5 8 -10 11 -10 5z"/>
<path d="M6340 3815 c0 -5 5 -17 10 -25 5 -8 10 -10 10 -5 0 6 -5 17 -10 25
-5 8 -10 11 -10 5z"/>
<path d="M6146 3757 c3 -10 9 -15 12 -12 3 3 0 11 -7 18 -10 9 -11 8 -5 -6z"/>
<path d="M6190 3765 c0 -5 5 -17 10 -25 5 -8 10 -10 10 -5 0 6 -5 17 -10 25
-5 8 -10 11 -10 5z"/>
<path d="M6221 3754 c0 -11 3 -14 6 -6 3 7 2 16 -1 19 -3 4 -6 -2 -5 -13z"/>
<path d="M6127 3720 c3 -11 7 -20 9 -20 2 0 4 9 4 20 0 11 -4 20 -9 20 -5 0
-7 -9 -4 -20z"/>
<path d="M6105 3710 c3 -5 8 -10 11 -10 2 0 4 5 4 10 0 6 -5 10 -11 10 -5 0
-7 -4 -4 -10z"/>
<path d="M5925 3685 c-40 -19 -16 -19 26 0 19 8 27 14 19 14 -8 0 -28 -7 -45
-14z"/>
<path d="M5868 3641 c-64 -20 -121 -40 -125 -44 -4 -5 -1 -6 7 -3 8 3 62 19
120 36 58 18 109 36 115 41 11 11 21 14 -117 -30z"/>
<path d="M5645 3570 c-16 -7 -17 -9 -3 -9 9 -1 20 4 23 9 7 11 7 11 -20 0z"/>
<path d="M5368 3503 c7 -3 16 -2 19 1 4 3 -2 6 -13 5 -11 0 -14 -3 -6 -6z"/>
<path d="M5155 3436 l-30 -13 26 -6 c24 -6 126 20 116 29 -2 3 -15 1 -28 -4
-13 -5 -37 -12 -54 -16 l-30 -6 25 15 c31 18 16 19 -25 1z"/>
<path d="M5540 3438 c0 -16 23 -68 31 -68 5 0 3 12 -3 28 -12 27 -28 51 -28
40z"/>
<path d="M5580 3430 c0 -5 5 -10 11 -10 5 0 7 5 4 10 -3 6 -8 10 -11 10 -2 0
-4 -4 -4 -10z"/>
<path d="M5526 3358 c11 -39 116 -239 121 -234 6 5 -116 256 -124 256 -2 0 -1
-10 3 -22z"/>
<path d="M5617 3345 c9 -19 20 -35 25 -35 4 0 0 16 -9 35 -9 19 -20 35 -25 35
-4 0 0 -16 9 -35z"/>
<path d="M5580 3335 c0 -13 32 -66 36 -62 6 6 -23 67 -31 67 -3 0 -5 -2 -5 -5z"/>
<path d="M5694 3114 c42 -76 145 -218 153 -211 3 3 -25 47 -62 99 -37 51 -76
110 -86 130 -10 20 -24 40 -31 44 -6 4 5 -24 26 -62z"/>
<path d="M5700 3041 c0 -6 4 -13 10 -16 6 -3 7 1 4 9 -7 18 -14 21 -14 7z"/>
<path d="M5750 2971 c0 -6 4 -13 10 -16 6 -3 7 1 4 9 -7 18 -14 21 -14 7z"/>
<path d="M5790 2914 c0 -6 22 -35 50 -65 27 -30 49 -49 49 -44 0 6 -22 34 -49
64 -28 30 -50 50 -50 45z"/>
<path d="M5940 2803 c0 -23 184 -163 214 -163 6 0 -14 16 -44 36 -30 20 -81
59 -112 86 -32 27 -58 45 -58 41z"/>
<path d="M5915 2770 c3 -5 11 -10 16 -10 6 0 7 5 4 10 -3 6 -11 10 -16 10 -6
0 -7 -4 -4 -10z"/>
<path d="M6155 2680 c3 -5 8 -10 11 -10 2 0 4 5 4 10 0 6 -5 10 -11 10 -5 0
-7 -4 -4 -10z"/>
<path d="M5208 3352 c-80 -32 -138 -61 -138 -69 0 -7 3 -13 7 -13 17 0 293
124 293 131 0 15 -21 9 -162 -49z"/>
<path d="M5365 3358 c-22 -12 -35 -23 -28 -25 11 -4 93 33 93 42 0 10 -27 3
-65 -17z"/>
<path d="M5394 3311 c-40 -18 -65 -41 -45 -41 20 0 101 40 101 50 0 14 -8 13
-56 -9z"/>
<path d="M5265 3309 c-4 -6 -5 -12 -2 -15 7 -7 37 7 37 17 0 13 -27 11 -35 -2z"/>
<path d="M5158 3263 c-56 -25 -81 -51 -35 -37 30 9 117 53 117 59 0 10 -26 3
-82 -22z"/>
<path d="M5390 3249 c-36 -17 -59 -34 -52 -36 15 -6 142 46 142 59 0 15 -24 9
-90 -23z"/>
<path d="M5244 3241 c-77 -36 -93 -58 -22 -30 29 12 63 25 76 30 20 8 31 29
15 29 -5 0 -36 -13 -69 -29z"/>
<path d="M5443 3215 c-29 -13 -53 -29 -53 -34 0 -6 23 -2 53 10 60 24 60 24
56 38 -3 6 -25 1 -56 -14z"/>
<path d="M5215 3169 c-67 -34 -71 -37 -63 -44 6 -6 158 61 158 69 0 14 -39 3
-95 -25z"/>
<path d="M5435 3154 c-27 -13 -72 -33 -100 -45 -27 -12 -45 -24 -38 -26 15 -5
223 78 223 89 0 14 -34 7 -85 -18z"/>
<path d="M5320 3150 c0 -5 4 -10 9 -10 6 0 13 5 16 10 3 6 -1 10 -9 10 -9 0
-16 -4 -16 -10z"/>
<path d="M5477 3104 c-27 -14 -46 -28 -43 -31 7 -8 116 37 116 48 0 15 -22 9
-73 -17z"/>
<path d="M5185 3101 c-10 -17 11 -21 31 -6 18 14 18 14 -3 15 -12 0 -24 -4
-28 -9z"/>
<path d="M5466 3036 c-89 -38 -131 -67 -94 -65 24 1 202 85 206 97 5 17 0 15
-112 -32z"/>
<path d="M5247 3063 c-4 -3 -7 -11 -7 -17 0 -6 5 -5 12 2 6 6 9 14 7 17 -3 3
-9 2 -12 -2z"/>
<path d="M5370 3050 c0 -5 4 -10 9 -10 6 0 13 5 16 10 3 6 -1 10 -9 10 -9 0
-16 -4 -16 -10z"/>
<path d="M5310 3024 c0 -14 3 -14 15 -4 8 7 15 14 15 16 0 2 -7 4 -15 4 -8 0
-15 -7 -15 -16z"/>
<path d="M5533 3003 c-35 -15 -63 -32 -63 -40 0 -14 6 -12 93 26 26 11 47 25
47 31 0 14 -6 13 -77 -17z"/>
<path d="M5253 3003 c-14 -5 -18 -23 -5 -23 5 0 17 7 28 15 14 11 15 14 4 14
-8 0 -21 -3 -27 -6z"/>
<path d="M5310 2960 c0 -5 4 -10 9 -10 6 0 13 5 16 10 3 6 -1 10 -9 10 -9 0
-16 -4 -16 -10z"/>
<path d="M5578 2954 c-27 -14 -38 -34 -18 -34 16 0 80 33 80 42 0 13 -32 9
-62 -8z"/>
<path d="M5270 2939 c0 -5 5 -7 10 -4 6 3 10 8 10 11 0 2 -4 4 -10 4 -5 0 -10
-5 -10 -11z"/>
<path d="M5410 2940 c0 -5 4 -10 9 -10 6 0 13 5 16 10 3 6 -1 10 -9 10 -9 0
-16 -4 -16 -10z"/>
<path d="M5344 2915 c-17 -13 -17 -14 -2 -15 9 0 20 5 23 11 11 17 0 20 -21 4z"/>
<path d="M5500 2909 c0 -5 5 -7 10 -4 6 3 10 8 10 11 0 2 -4 4 -10 4 -5 0 -10
-5 -10 -11z"/>
<path d="M5625 2898 c-22 -12 -35 -23 -28 -25 16 -6 83 24 83 36 0 15 -9 13
-55 -11z"/>
<path d="M5440 2890 c0 -5 4 -10 9 -10 6 0 13 5 16 10 3 6 -1 10 -9 10 -9 0
-16 -4 -16 -10z"/>
<path d="M5370 2860 c0 -5 6 -10 14 -10 8 0 18 5 21 10 3 6 -3 10 -14 10 -12
0 -21 -4 -21 -10z"/>
<path d="M5527 2859 c-9 -6 -17 -14 -17 -19 0 -10 38 -1 45 11 9 13 -9 18 -28
8z"/>
<path d="M5681 2861 c-7 -5 -9 -11 -4 -14 6 -4 19 0 29 8 15 11 16 14 4 15 -8
0 -21 -4 -29 -9z"/>
<path d="M5620 2824 c0 -8 5 -12 10 -9 6 3 10 10 10 16 0 5 -4 9 -10 9 -5 0
-10 -7 -10 -16z"/>
<path d="M5440 2820 c-8 -5 -11 -12 -8 -16 10 -9 38 3 38 16 0 12 -10 13 -30
0z"/>
<path d="M5690 2805 c-25 -13 -38 -24 -30 -25 20 0 100 33 100 43 0 13 -24 7
-70 -18z"/>
<path d="M5521 2794 c-24 -10 -31 -18 -24 -25 7 -7 23 -4 52 10 22 12 41 24
41 26 0 10 -35 4 -69 -11z"/>
<path d="M5583 2759 c-22 -8 -32 -29 -15 -29 12 0 48 28 42 33 -3 3 -15 1 -27
-4z"/>
<path d="M5723 2760 c-19 -8 -33 -30 -18 -30 12 0 55 24 55 32 0 10 -8 9 -37
-2z"/>
<path d="M5791 2736 c-15 -8 -20 -16 -13 -20 13 -8 52 10 52 24 0 13 -10 12
-39 -4z"/>
<path d="M5640 2720 c-8 -5 -11 -12 -8 -16 10 -9 38 3 38 16 0 12 -10 13 -30
0z"/>
<path d="M5730 2700 c0 -5 5 -10 10 -10 6 0 10 5 10 10 0 6 -4 10 -10 10 -5 0
-10 -4 -10 -10z"/>
<path d="M5764 2674 c-18 -15 -18 -15 11 -9 37 8 57 25 29 25 -11 0 -29 -7
-40 -16z"/>
<path d="M5860 2663 c-20 -9 -29 -18 -22 -20 16 -6 72 16 72 28 0 12 -8 10
-50 -8z"/>
<path d="M5925 2640 c-3 -5 1 -10 9 -10 9 0 16 5 16 10 0 6 -4 10 -9 10 -6 0
-13 -4 -16 -10z"/>
<path d="M6595 2710 c-16 -17 -25 -30 -21 -30 11 0 61 49 55 55 -3 2 -18 -9
-34 -25z"/>
<path d="M6430 2565 c-7 -9 -11 -18 -8 -20 3 -3 11 1 18 10 7 9 11 18 8 20 -3
3 -11 -1 -18 -10z"/>
<path d="M6369 2533 c-13 -16 -12 -17 4 -4 9 7 17 15 17 17 0 8 -8 3 -21 -13z"/>
<path d="M6135 2290 c-16 -17 -24 -30 -19 -30 13 0 59 48 52 55 -2 3 -17 -9
-33 -25z"/>
</g>
</svg>
